<?xml version="1.0" encoding="UTF-8"?>
<svg id="Capa_1" data-name="Capa 1" xmlns="http://www.w3.org/2000/svg" version="1.1" viewBox="0 0 512 512">
  <defs>
    <style>
      .cls-1 {
        fill: #70ab59;
        stroke-width: 0px;
      }
    </style>
  </defs>
  <path class="cls-1" d="M298.7,138.7c0,58.9-47.8,106.7-106.7,106.7s-106.7-47.8-106.7-106.7,47.8-106.7,106.7-106.7,106.7,47.8,106.7,106.7Z"/>
  <path class="cls-1" d="M282.7,288H101.3c-55.9,0-101.3,45.5-101.3,101.3v74.7c0,8.8,7.2,16,16,16h352c8.8,0,16-7.2,16-16v-74.7c0-55.9-45.5-101.3-101.3-101.3Z"/>
  <path class="cls-1" d="M506.9,212.3l-74.7-69.3c-3-2.8-6.9-4.2-10.9-4.2-10.6,0-16,9-16,16v48h-85.3c-11.8,0-21.3,9.6-21.3,21.3s9.5,21.3,21.3,21.3h85.3v48c0,8.9,7.2,16,16,16s7.9-1.5,10.9-4.3l74.7-69.3c3.2-3,5.1-7.3,5.1-11.7s-1.9-8.7-5.1-11.7Z"/>
</svg>